<svg width="96" height="12" viewBox="0 0 96 12" fill="none" xmlns="http://www.w3.org/2000/svg">
<path fill-rule="evenodd" clip-rule="evenodd" d="M0.5 5.5L95 5.5L95 6.5L0.5 6.5L0.5 5.5Z" fill="#4F3566"/>
<mask id="path-2-inside-1" fill="white">
<path fill-rule="evenodd" clip-rule="evenodd" d="M94.2927 5.99995L89.6464 1.35359L90.3535 0.646484L95.707 5.99995L90.3535 11.3534L89.6464 10.6463L94.2927 5.99995Z"/>
</mask>
<path fill-rule="evenodd" clip-rule="evenodd" d="M94.2927 5.99995L89.6464 1.35359L90.3535 0.646484L95.707 5.99995L90.3535 11.3534L89.6464 10.6463L94.2927 5.99995Z" fill="#4F3566"/>
<path d="M89.6464 1.35359L88.9393 0.646484L88.2322 1.35359L88.9393 2.0607L89.6464 1.35359ZM94.2927 5.99995L94.9998 6.70706L95.707 5.99995L94.9998 5.29284L94.2927 5.99995ZM90.3535 0.646484L91.0606 -0.0606224L90.3535 -0.767729L89.6464 -0.0606224L90.3535 0.646484ZM95.707 5.99995L96.4141 6.70706L97.1212 5.99995L96.4141 5.29284L95.707 5.99995ZM90.3535 11.3534L89.6464 12.0605L90.3535 12.7676L91.0606 12.0605L90.3535 11.3534ZM89.6464 10.6463L88.9393 9.9392L88.2322 10.6463L88.9393 11.3534L89.6464 10.6463ZM88.9393 2.0607L93.5856 6.70706L94.9998 5.29284L90.3535 0.646484L88.9393 2.0607ZM89.6464 -0.0606224L88.9393 0.646484L90.3535 2.0607L91.0606 1.35359L89.6464 -0.0606224ZM88.9393 11.3534L89.6464 12.0605L91.0606 10.6463L90.3535 9.9392L88.9393 11.3534ZM93.5856 5.29284L88.9393 9.9392L90.3535 11.3534L94.9998 6.70706L93.5856 5.29284ZM96.4141 5.29284L91.0606 -0.0606224L89.6464 1.35359L94.9998 6.70706L96.4141 5.29284ZM91.0606 12.0605L96.4141 6.70706L94.9998 5.29284L89.6464 10.6463L91.0606 12.0605Z" fill="#4F3566" mask="url(#path-2-inside-1)"/>
</svg>
