<svg width="96" height="12" viewBox="0 0 96 12" fill="none" xmlns="http://www.w3.org/2000/svg">
<path fill-rule="evenodd" clip-rule="evenodd" d="M95.5 5.5L1 5.5L1 6.5L95.5 6.5L95.5 5.5Z" fill="#4F3566"/>
<mask id="path-2-inside-1" fill="white">
<path fill-rule="evenodd" clip-rule="evenodd" d="M1.70726 5.99995L6.35362 1.35359L5.64651 0.646484L0.293049 5.99995L5.64651 11.3534L6.35362 10.6463L1.70726 5.99995Z"/>
</mask>
<path fill-rule="evenodd" clip-rule="evenodd" d="M1.70726 5.99995L6.35362 1.35359L5.64651 0.646484L0.293049 5.99995L5.64651 11.3534L6.35362 10.6463L1.70726 5.99995Z" fill="#4F3566"/>
<path d="M6.35362 1.35359L7.06073 0.646484L7.76784 1.35359L7.06073 2.0607L6.35362 1.35359ZM1.70726 5.99995L1.00016 6.70706L0.293049 5.99995L1.00016 5.29284L1.70726 5.99995ZM5.64651 0.646484L4.93941 -0.0606224L5.64651 -0.767729L6.35362 -0.0606224L5.64651 0.646484ZM0.293049 5.99995L-0.414058 6.70706L-1.12116 5.99995L-0.414058 5.29284L0.293049 5.99995ZM5.64651 11.3534L6.35362 12.0605L5.64651 12.7676L4.93941 12.0605L5.64651 11.3534ZM6.35362 10.6463L7.06073 9.9392L7.76784 10.6463L7.06073 11.3534L6.35362 10.6463ZM7.06073 2.0607L2.41437 6.70706L1.00016 5.29284L5.64651 0.646484L7.06073 2.0607ZM6.35362 -0.0606224L7.06073 0.646484L5.64651 2.0607L4.93941 1.35359L6.35362 -0.0606224ZM7.06073 11.3534L6.35362 12.0605L4.93941 10.6463L5.64651 9.9392L7.06073 11.3534ZM2.41437 5.29284L7.06073 9.9392L5.64651 11.3534L1.00016 6.70706L2.41437 5.29284ZM-0.414058 5.29284L4.93941 -0.0606224L6.35362 1.35359L1.00016 6.70706L-0.414058 5.29284ZM4.93941 12.0605L-0.414058 6.70706L1.00016 5.29284L6.35362 10.6463L4.93941 12.0605Z" fill="#4F3566" mask="url(#path-2-inside-1)"/>
</svg>
