<svg width="36" height="36" viewBox="0 0 36 36" fill="none" xmlns="http://www.w3.org/2000/svg">
<path d="M34.4505 8.3715C34.2947 8.21406 34.1092 8.08911 33.9048 8.00388C33.7003 7.91866 33.481 7.87485 33.2595 7.875H32.0625V5.0625C32.0617 4.61519 31.8837 4.18643 31.5674 3.87013C31.2511 3.55384 30.8223 3.37579 30.375 3.375H6.0915C4.7743 3.375 3.51105 3.89825 2.57965 4.82965C1.64825 5.76105 1.125 7.0243 1.125 8.3415V27.66C1.125 28.9772 1.64825 30.2404 2.57965 31.1718C3.51105 32.1032 4.7743 32.6265 6.0915 32.6265H33.1905C33.6369 32.6261 34.065 32.449 34.3812 32.1339C34.6974 31.8188 34.876 31.3914 34.878 30.945L34.944 9.57V9.5595C34.944 9.096 34.7565 8.676 34.452 8.373L34.4505 8.3715ZM32.628 30.375H6.09C4.59 30.375 3.3735 29.1585 3.3735 27.6585V8.34C3.3735 6.84 4.59 5.6235 6.09 5.6235H29.811V7.8735H6.186V10.1235H32.6895L32.628 30.375Z" fill="#4BA440"/>
<path d="M27.5625 18.5625H29.8125V20.8125H27.5625V18.5625Z" fill="#4BA440"/>
</svg>
