<svg width="100" height="29" viewBox="0 0 100 29" fill="none" xmlns="http://www.w3.org/2000/svg">
<path fill-rule="evenodd" clip-rule="evenodd" d="M79.5298 13.5174C80.3902 13.5235 81.2505 13.5174 82.1109 13.52C81.8498 16.8385 81.6352 20.1604 81.4145 23.4814C80.5859 23.478 79.7582 23.4797 78.9297 23.4814C79.1211 20.1595 79.3057 16.8376 79.5298 13.5174ZM68.6974 13.5218C69.5972 13.5218 70.497 13.5131 71.3969 13.5261C72.0383 15.7098 72.6744 17.8952 73.3151 20.0789C73.3349 20.0798 73.3744 20.0832 73.3939 20.085C74.318 17.8995 75.241 15.7132 76.1588 13.5252C77.0629 13.5141 77.9672 13.5209 78.8722 13.5218C77.4065 16.848 75.9185 20.1638 74.4398 23.484C73.5865 23.4531 72.72 23.5243 71.8743 23.4504C70.7968 20.1475 69.7629 16.8291 68.6974 13.5218ZM30.2548 13.4823C31.1796 13.5081 32.1216 13.4318 33.0359 13.5193C33.7598 15.5991 34.4458 17.6946 35.1731 19.7745C36.2068 17.6962 37.1737 15.5811 38.1679 13.4823H40.9997C38.5629 18.4056 36.0902 23.3116 33.649 28.2332C32.781 28.2365 31.9137 28.2349 31.0457 28.234C31.8854 26.4594 32.7432 24.6934 33.5942 22.9239C32.4744 19.7796 31.3676 16.6293 30.2548 13.4823ZM94.5446 15.6935C94.0596 16.0819 93.7659 16.66 93.5925 17.2459C94.8067 17.2613 96.0215 17.2494 97.2356 17.2528C97.3068 16.7338 97.2365 16.1361 96.8277 15.7647C96.2156 15.2123 95.1878 15.1644 94.5446 15.6935ZM91.9379 15.1513C93.1554 13.3528 95.6599 12.9119 97.6203 13.5912C98.5322 13.9112 99.2722 14.6471 99.6087 15.5512C100.054 16.7356 100.071 18.0565 99.7943 19.2813C97.634 19.2744 95.4736 19.2744 93.3141 19.2813C93.3349 19.8319 93.4396 20.4083 93.7994 20.8466C94.3291 21.4959 95.211 21.7343 96.0215 21.7224C97.1299 21.7677 98.2316 21.5386 99.2817 21.1973C99.3067 21.8543 99.2294 22.5089 99.2105 23.165C97.7164 23.6538 96.1219 23.7515 94.5601 23.6993C93.1656 23.6323 91.8073 22.8133 91.2347 21.5182C90.3066 19.4776 90.722 16.9843 91.9379 15.1513ZM64.4266 14.7268C65.2887 13.5775 66.805 13.1479 68.1892 13.2996C68.0604 14.0424 67.9796 14.7938 67.8456 15.5357C66.6591 15.6403 65.0474 15.7441 64.5065 16.9997C64.3072 19.1526 64.2721 21.3242 64.0823 23.4805C63.2511 23.4797 62.4191 23.4788 61.5879 23.4814C61.745 20.1475 61.9718 16.8154 62.1735 13.4823C62.923 13.4815 63.6718 13.4823 64.4214 13.4823C64.424 13.8966 64.4196 14.3117 64.4266 14.7268ZM55.6377 15.6874C55.1551 16.0802 54.8417 16.6533 54.6871 17.2494C55.8961 17.2596 57.1042 17.2485 58.3132 17.2553C58.4119 16.6995 58.2977 16.0477 57.8263 15.6866C57.2039 15.2192 56.2516 15.1831 55.6377 15.6874ZM53.1433 14.9945C54.5317 13.1547 57.3377 12.827 59.2998 13.8743C61.1028 14.967 61.2899 17.4124 60.8855 19.2803C58.7193 19.2787 56.5529 19.2666 54.3866 19.2865C54.4372 19.8182 54.5128 20.3799 54.8571 20.8123C55.3826 21.4941 56.2971 21.7343 57.1248 21.7224C58.2349 21.7686 59.3358 21.531 60.3884 21.1923C60.3687 21.8492 60.3112 22.5052 60.2974 23.1633C58.8643 23.6375 57.3368 23.7395 55.8377 23.7071C54.7053 23.6795 53.5382 23.2241 52.824 22.3193C52.1036 21.4298 51.8254 20.2659 51.7944 19.1424C51.8742 17.6808 52.235 16.1729 53.1433 14.9945ZM4.05463 15.5289C3.42277 15.8873 3.0664 16.5761 2.86208 17.2485C4.08217 17.2562 5.30225 17.2562 6.52234 17.2485C6.60744 16.6661 6.45884 15.9791 5.94631 15.6292C5.39415 15.2723 4.63595 15.1892 4.05463 15.5289ZM2.0258 14.2766C2.91867 13.5355 4.11219 13.2439 5.25679 13.2988C6.49577 13.2953 7.83271 13.7696 8.52212 14.8547C9.35841 16.1566 9.33692 17.8017 9.08962 19.2744C6.92331 19.2813 4.75798 19.2734 2.59167 19.2787C2.58983 19.9211 2.77536 20.608 3.26899 21.0499C3.84696 21.5774 4.6704 21.7419 5.43195 21.718C6.49923 21.7523 7.55279 21.507 8.56511 21.1913C8.50582 21.8467 8.55819 22.507 8.48433 23.1607C7.03411 23.6273 5.49199 23.742 3.97655 23.7018C2.765 23.6641 1.54491 23.1116 0.846854 22.098C0.00711336 20.8749 -0.151742 19.2967 0.124716 17.8661C0.373744 16.5211 0.939619 15.1591 2.0258 14.2766ZM24.551 13.3597C25.7977 13.1452 27.1208 13.2894 28.2714 13.822C29.2176 14.2611 29.9828 15.2337 29.9088 16.3119C29.7921 18.7101 29.6358 21.1064 29.5473 23.5055C28.6295 23.532 27.7115 23.5115 26.7937 23.5166C26.8573 22.1126 26.9465 20.7085 27.0316 19.3052C26.3541 19.0385 25.6037 19.0308 24.8884 19.0986C24.2058 19.2126 23.4417 19.6329 23.3232 20.3773C23.2374 21.043 23.822 21.6887 24.4909 21.6948C25.2757 21.6749 26.0201 21.3569 26.6666 20.929C26.5842 21.6433 26.4666 22.3536 26.3679 23.0663C25.4543 23.761 24.2221 23.8768 23.1214 23.6856C22.1692 23.5595 21.2126 23.0448 20.7884 22.1501C20.2012 20.8929 20.5163 19.2702 21.5029 18.3C23.002 16.9123 25.2431 16.9663 27.1415 17.209C27.2196 16.7657 27.2154 16.2468 26.8797 15.9036C26.4408 15.4645 25.7755 15.3616 25.1796 15.3676C24.0126 15.3315 22.8595 15.588 21.7407 15.8959C21.7304 15.2115 21.8404 14.5338 21.8437 13.8494C22.7204 13.5715 23.6443 13.4874 24.551 13.3597ZM86.8453 12.2652C87.7444 12.255 88.644 12.2618 89.544 12.2618C89.5268 12.6752 89.4993 13.0895 89.4874 13.5037C89.8581 13.5689 90.2317 13.623 90.6052 13.6813C90.5614 14.3864 90.5304 15.0939 90.4902 15.7999C89.1645 15.329 87.4541 15.1171 86.3473 16.1721C85.3745 17.2022 85.1324 18.8027 85.4894 20.139C85.718 20.9623 86.4908 21.5619 87.3374 21.6236C88.3341 21.6811 89.3507 21.5078 90.2661 21.1073C90.2893 21.8235 90.2121 22.5371 90.1948 23.2533C89.7956 23.3845 89.3878 23.4925 88.973 23.5577C88.9232 23.8845 88.9154 24.2155 88.9017 24.5458C88.0087 24.5475 87.1167 24.5467 86.2236 24.5458C86.2271 24.2671 86.2529 23.9892 86.2702 23.7113C85.4294 23.5843 84.5768 23.3021 83.9543 22.7018C83.1197 21.9273 82.7952 20.7582 82.7547 19.6527C82.6939 18.1062 82.9214 16.444 83.9029 15.1909C84.6078 14.2809 85.6999 13.7739 86.8068 13.5449C86.8377 13.1195 86.8169 12.6914 86.8453 12.2652ZM13.5082 11.9917C13.448 13.3288 13.3923 14.6659 13.3313 16.0031C14.5875 15.9345 15.9553 16.1198 17.0793 15.4233C17.834 15.0228 18.2908 14.0869 18.0092 13.2576C17.7824 12.5869 17.0818 12.2463 16.4362 12.0937C15.4736 11.8981 14.4836 12.0166 13.5082 11.9917ZM11.0079 9.74365C12.6925 9.75476 14.378 9.73416 16.0626 9.7539C17.7773 9.86976 19.8413 10.4323 20.5695 12.1692C21.1989 14.0338 20.4271 16.3866 18.6308 17.3171C16.9591 18.1954 15.0065 18.2151 13.1622 18.2194C12.9938 19.9802 12.9158 21.7506 12.7784 23.5148C11.9026 23.526 11.0259 23.5192 10.1501 23.5192C10.4291 18.9279 10.6782 14.3307 11.0079 9.74365ZM42.9352 10.8938C43.999 9.76674 45.6149 9.35854 47.1201 9.38766C48.4363 9.48712 49.9046 9.52316 50.9882 10.3714C50.91 11.0996 50.8362 11.8288 50.7571 12.5568C49.0777 11.8029 47.0641 11.2789 45.3006 12.0594C44.4618 12.4 43.9646 13.5852 44.6017 14.3194C45.2276 15.0038 46.1842 15.2457 47.0729 15.3607C48.3778 15.5863 49.7602 16.0864 50.545 17.2177C51.3428 18.3309 51.1762 19.8371 50.6997 21.0446C50.0162 22.6769 48.2302 23.4847 46.5627 23.671C44.6953 23.8047 42.6826 23.8373 40.998 22.9007C41.0547 22.1459 41.1328 21.3929 41.1552 20.6364C42.6904 21.3716 44.4361 21.5593 46.1171 21.4298C47.0127 21.3011 47.9992 20.8421 48.2757 19.9083C48.4793 19.3901 48.3195 18.7658 47.8679 18.4329C47.0591 17.8052 45.9746 17.8987 45.0482 17.5659C43.6143 17.1525 42.1186 16.2227 41.7656 14.6728C41.5475 13.3305 42.0301 11.8991 42.9352 10.8938ZM79.7934 8.65854C80.6845 8.65854 81.5768 8.65519 82.469 8.66026C82.4663 9.55487 82.3479 10.4443 82.3641 11.3398C81.4686 11.3424 80.574 11.3424 79.6793 11.3389C79.6895 10.4443 79.7514 9.55239 79.7934 8.65854ZM29.5559 4.41129C30.1785 5.14549 30.7683 5.90546 31.3745 6.6525C32.2838 6.33513 33.1759 5.97148 34.0801 5.64031C33.5631 6.45088 33.03 7.25109 32.4993 8.0539C33.0994 8.81388 33.7125 9.5635 34.3171 10.3209C33.3923 10.0626 32.4641 9.81647 31.5394 9.55573C30.9813 10.3585 30.4652 11.1897 29.9063 11.9917C29.9088 11.0173 29.8187 10.0473 29.7844 9.07547C28.8579 8.82758 27.9263 8.59079 27.0119 8.30093C27.9135 7.97677 28.809 7.63707 29.7037 7.29489C29.6281 6.33513 29.6358 5.37105 29.5559 4.41129ZM16.4859 0.480438C17.0844 1.23179 17.6691 1.99338 18.2591 2.7525C19.1639 2.4334 20.0647 2.10061 20.9714 1.78497C20.4476 2.59295 19.8783 3.36911 19.3597 4.18055C19.9462 4.9388 20.5386 5.6936 21.1182 6.45778C20.1926 6.19867 19.2764 5.9019 18.3457 5.66264C17.7893 6.45261 17.2724 7.27084 16.6859 8.03847C16.6851 7.08303 16.6568 6.12747 16.6353 5.17202C15.72 4.85897 14.7807 4.61625 13.8559 4.33405C14.7574 3.9909 15.6771 3.69252 16.5795 3.35023C16.5099 2.39489 16.5134 1.43675 16.4859 0.480438ZM24.4798 2.64354C25.0284 1.85185 25.5677 1.05336 26.1231 0.266846C26.1404 1.2334 26.1343 2.20439 26.2176 3.16846C27.1321 3.44894 28.0577 3.69511 28.9652 3.99953C28.0482 4.29975 27.1432 4.63513 26.233 4.95336C26.2734 5.90967 26.3155 6.86684 26.2958 7.82488C25.705 7.07623 25.1357 6.30935 24.5527 5.55368C23.6399 5.85045 22.7428 6.1909 21.8317 6.49198C22.3607 5.6978 22.9162 4.92078 23.4571 4.13416C22.8664 3.37429 22.2946 2.60061 21.7029 1.8416C22.6345 2.08777 23.5507 2.38788 24.4798 2.64354Z" fill="black"/>
</svg>
