<svg xmlns="http://www.w3.org/2000/svg" viewBox="0 0 76.59 32.65"><defs><style>.cls-1{fill:#fff;}.cls-2{fill:#ff5252;}.cls-3{opacity:0.33;}</style></defs><title>logoРесурс 1</title><g id="Слой_2" data-name="Слой 2"><g id="Слой_1-2" data-name="Слой 1"><g id="_Группа_" data-name="&lt;Группа&gt;"><path class="cls-1" d="M12.81,15.87H11.58a.16.16,0,0,0-.16.16V20.1a.17.17,0,0,1-.17.17H8.76a.17.17,0,0,1-.17-.17V8.76a.17.17,0,0,1,.17-.17h4.12c2.56,0,4.57.93,4.57,3.6S15.26,15.87,12.81,15.87Zm-.17-5H11.58a.16.16,0,0,0-.16.16v2.43a.16.16,0,0,0,.16.16h1c1.06,0,2-.31,2-1.42S13.66,10.87,12.65,10.87Z"/><path class="cls-1" d="M28.36,20.17l-.83-2.09a.16.16,0,0,0-.15-.1h-4.3a.16.16,0,0,0-.15.1l-.78,2.09a.16.16,0,0,1-.15.1H19.28a.16.16,0,0,1-.15-.22L23.9,8.69a.16.16,0,0,1,.15-.1h2.53a.16.16,0,0,1,.15.1l4.72,11.37a.16.16,0,0,1-.15.22H28.51A.16.16,0,0,1,28.36,20.17Zm-3.25-8.06L23.86,15.5a.16.16,0,0,0,.15.21h2.48a.16.16,0,0,0,.15-.21l-1.23-3.39A.16.16,0,0,0,25.11,12.12Z"/><path class="cls-1" d="M41.82,20.2l-2.37-3.83a.16.16,0,0,0-.27,0L36.9,20.2a.16.16,0,0,1-.14.08h-3a.16.16,0,0,1-.13-.25l3.87-5.84a.16.16,0,0,0,0-.18L34,8.84a.16.16,0,0,1,.13-.25h3a.16.16,0,0,1,.14.08l2,3.32a.16.16,0,0,0,.27,0l2-3.32a.16.16,0,0,1,.14-.08h2.89a.16.16,0,0,1,.13.25L41.19,14a.16.16,0,0,0,0,.18l4,5.83a.16.16,0,0,1-.13.25H42A.16.16,0,0,1,41.82,20.2Z"/><path class="cls-1" d="M53.61,20.59c-3.07,0-5-1.92-5-4.72V8.75a.16.16,0,0,1,.16-.16h2.48a.16.16,0,0,1,.16.16v6.88a2.2,2.2,0,1,0,4.39,0V8.75A.16.16,0,0,1,56,8.59h2.5a.16.16,0,0,1,.16.16v7.12C58.64,18.67,56.66,20.59,53.61,20.59Z"/><path class="cls-1" d="M74,20.27a.17.17,0,0,1-.17-.17L73.9,12h0l-3,8.16a.17.17,0,0,1-.16.11H69a.17.17,0,0,1-.16-.11L65.88,12h0l.06,8.1a.17.17,0,0,1-.17.17H63.4a.17.17,0,0,1-.17-.17V8.76a.17.17,0,0,1,.17-.17h3.72a.17.17,0,0,1,.16.11l2.62,7.38H70l2.5-7.38a.17.17,0,0,1,.16-.11h3.79a.17.17,0,0,1,.17.17V20.11a.17.17,0,0,1-.17.17Z"/></g><path class="cls-2" d="M0,10H3.05A7,7,0,0,1,10,3.05V0A10,10,0,0,0,0,10Z"/><g class="cls-3"><path class="cls-1" d="M8.59,26.65h1.46c1,0,1.69.36,1.69,1.3S11,29.27,10,29.27H9.39v1.85h-.8Zm1.35,2c.52,0,1-.13,1-.66s-.47-.63-1-.63H9.39V28.6Z"/><path class="cls-1" d="M14.42,30.74h0a1.08,1.08,0,0,1-.94.46,1,1,0,0,1-1.14-.94c0-.91,1.14-1,2.09-1v-.08c0-.37-.32-.56-.7-.56a1.22,1.22,0,0,0-.83.35l-.39-.46A1.92,1.92,0,0,1,13.78,28a1.18,1.18,0,0,1,1.35,1.28v1.85h-.71Zm0-1h-.17c-.48,0-1.16.06-1.16.51,0,.29.27.38.53.38a.72.72,0,0,0,.8-.78Z"/><path class="cls-1" d="M16,28.09h.84l.85,2.21h0l.75-2.21h.79l-1.44,3.69a1.1,1.1,0,0,1-1.15.87,1.69,1.69,0,0,1-.39,0l.06-.66a1,1,0,0,0,.28,0c.32,0,.41-.16.54-.48l.15-.39Z"/><path class="cls-1" d="M21.79,26.65h.87l.87,3.29h0l1-3.29h.82l1,3.29h0l.89-3.29h.85l-1.31,4.48H26l-1.05-3.36h0l-1.05,3.36H23.1Z"/><path class="cls-1" d="M29.43,26.6a.46.46,0,1,1-.48.46A.47.47,0,0,1,29.43,26.6Zm-.37,1.49h.76v3h-.76Z"/><path class="cls-1" d="M30.78,28.7v-.61h.53v-.88h.75v.88h.76v.61h-.76v1.41c0,.27.06.47.4.47a.79.79,0,0,0,.32-.06l0,.6a1.57,1.57,0,0,1-.51.08c-.8,0-1-.49-1-1.08V28.7Z"/><path class="cls-1" d="M36.66,29.23v1.9H35.9V29.46c0-.36-.08-.8-.56-.8a.74.74,0,0,0-.72.82v1.66h-.76V26.34h.76v2.17h0a1,1,0,0,1,.91-.51A1.11,1.11,0,0,1,36.66,29.23Z"/><path class="cls-1" d="M40.13,26.65h3v.7H40.92v1.14H43v.67H40.92v1.27h2.29v.71H40.13Z"/><path class="cls-1" d="M46.32,30.74h0a1.08,1.08,0,0,1-.94.46,1,1,0,0,1-1.14-.94c0-.91,1.14-1,2.09-1v-.08c0-.37-.32-.56-.7-.56a1.22,1.22,0,0,0-.83.35l-.39-.46A1.92,1.92,0,0,1,45.67,28,1.18,1.18,0,0,1,47,29.28v1.85h-.71Zm0-1h-.17c-.48,0-1.16.06-1.16.51,0,.29.27.38.53.38a.72.72,0,0,0,.8-.78Z"/><path class="cls-1" d="M50.06,28.9a.86.86,0,0,0-.66-.33c-.24,0-.49.09-.49.33s.23.3.66.4,1,.31,1,.91-.6,1-1.27,1a1.71,1.71,0,0,1-1.25-.5l.5-.47a1,1,0,0,0,.78.38c.22,0,.49-.09.49-.36s-.23-.33-.7-.44-.9-.29-.9-.86.61-1,1.21-1a1.47,1.47,0,0,1,1.14.46Z"/><path class="cls-1" d="M54.57,29.85H52.26a.85.85,0,0,0,.87.75.92.92,0,0,0,.8-.39l.51.41a1.66,1.66,0,0,1-2.94-1A1.55,1.55,0,0,1,53.11,28a1.44,1.44,0,0,1,1.47,1.65C54.58,29.72,54.58,29.78,54.57,29.85Zm-.75-.54a.68.68,0,0,0-.72-.73.81.81,0,0,0-.84.73Z"/></g></g></g></svg>