<svg width="8" height="12" viewBox="0 0 8 12" fill="none" xmlns="http://www.w3.org/2000/svg">
<path d="M7.46484 7.87598C7.46484 8.60059 7.2028 9.18392 6.67871 9.62598C6.15462 10.0635 5.4209 10.3255 4.47754 10.4121V11.8135H3.54102V10.4395C2.42904 10.4167 1.45378 10.2207 0.615234 9.85156V8.04688C1.01172 8.24284 1.48796 8.41602 2.04395 8.56641C2.60449 8.7168 3.10352 8.80566 3.54102 8.83301V6.71387L3.08301 6.53613C2.18066 6.18066 1.54036 5.79557 1.16211 5.38086C0.788411 4.96159 0.601562 4.44434 0.601562 3.8291C0.601562 3.16829 0.859049 2.62598 1.37402 2.20215C1.89355 1.77376 2.61589 1.514 3.54102 1.42285V0.376953H4.47754V1.39551C5.52116 1.44108 6.46452 1.65072 7.30762 2.02441L6.66504 3.62402C5.9541 3.33236 5.22493 3.15462 4.47754 3.09082V5.10742C5.36621 5.44922 5.9974 5.74544 6.37109 5.99609C6.74935 6.24674 7.02507 6.52246 7.19824 6.82324C7.37598 7.12402 7.46484 7.47493 7.46484 7.87598ZM5.40723 7.97852C5.40723 7.78711 5.32975 7.62533 5.1748 7.49316C5.01986 7.361 4.78743 7.22428 4.47754 7.08301V8.78516C5.09733 8.68034 5.40723 8.41146 5.40723 7.97852ZM2.65918 3.8291C2.65918 4.02962 2.72754 4.19596 2.86426 4.32812C3.00553 4.45573 3.23112 4.58789 3.54102 4.72461V3.11816C2.95312 3.20475 2.65918 3.44173 2.65918 3.8291Z" fill="#fff"/>
</svg>
