<svg width="24" height="24" viewBox="0 0 24 24" fill="none" xmlns="http://www.w3.org/2000/svg">
<path d="M11.9429 0C13.8153 0 15.5968 0.435606 17.1954 1.21483C17.4461 1.32968 17.6984 1.46715 17.9483 1.60473L16.8522 2.59068L15.2089 0.871335L12.3774 3.39275L10.71 1.58153L5.50325 6.2811L8.83677 9.97187L7.5354 11.1178L10.8243 14.8085L9.52278 15.954L14.2273 21.2037L17.0117 18.6361L19.4334 21.3877C18.9535 21.7545 18.4283 22.122 17.858 22.4424C16.1222 23.428 14.1123 24 11.966 24C5.36574 24 7.56371e-05 18.614 7.56371e-05 11.9897C-0.0232325 5.41011 5.34338 0 11.9429 0ZM9.75029 11.2556L12.6049 8.68801L15.1631 11.5534L12.3079 14.1207L9.75029 11.2556ZM11.7833 16.2073L14.6147 13.6169L17.1954 16.4821L14.3406 19.0498L11.7833 16.2073ZM7.71907 6.3731L10.5729 3.80551L13.1305 6.67088L10.2757 9.23835L7.71907 6.3731ZM12.9475 4.99724L15.0714 3.07176L16.9901 5.20374L14.8662 7.15197L12.9475 4.99724ZM16.7387 13.8228L18.8619 11.8972L20.7805 14.0515L18.6565 15.9783L16.7387 13.8228ZM18.611 18.1558L20.735 16.2299L22.6521 18.3617L20.5289 20.3097L18.611 18.1558ZM19.4789 8.2524L20.8946 6.96854L22.173 8.39034L20.7576 9.67373L19.4789 8.2524ZM17.652 4.01152L19.0678 2.70517L20.3471 4.14911L18.9303 5.43284L17.652 4.01152ZM21.2828 12.4936L22.6984 11.2099L24 12.6312L22.5619 13.9146L21.2828 12.4936ZM14.9117 9.30715L17.0357 7.38154L18.9535 9.51306L16.8304 11.439L14.9117 9.30715Z" fill="#88909E"/>
</svg>
