<svg width="63" height="83" viewBox="0 0 63 83" fill="none" xmlns="http://www.w3.org/2000/svg">
<path d="M31.5 0C14.136 0 0 14.2956 0 31.8558C0 39.0889 2.34193 45.9167 6.7937 51.5923L31.5 83L56.2063 51.5709C60.637 45.8954 63 39.0676 63 31.8344C63 14.2956 48.864 0 31.5 0Z" fill="#cccc00"/>
<rect x="18.5" y="18.9813" width="20.5201" height="20.8035" stroke="#FAF0FF"/>
<path d="M26.1294 33.9338C26.1294 35.3875 25.9806 36.6475 25.683 37.7136C25.396 38.7796 24.9868 39.7219 24.4554 40.5403C23.9346 41.3695 23.3128 42.1071 22.5901 42.7533C21.8779 43.3994 21.0967 44.0347 20.2464 44.6593L19.9595 44.2555C20.6928 43.5771 21.2721 42.8717 21.6973 42.1394C22.133 41.4072 22.4625 40.6211 22.6857 39.7811C22.9195 38.9519 23.0683 38.0582 23.1321 37.0997C23.1959 36.1306 23.2278 35.0753 23.2278 33.9338V20.4461C23.2278 19.5308 23.2171 18.7339 23.1959 18.0555C23.1746 17.3663 23.1427 16.774 23.1002 16.2787C23.0577 15.7726 23.0046 15.3526 22.9408 15.0188C22.8877 14.6849 22.8292 14.4049 22.7654 14.1788V14.1142H26.5917V14.1788C26.528 14.4049 26.4642 14.6849 26.4004 15.0188C26.3473 15.3526 26.2995 15.7726 26.2569 16.2787C26.2144 16.774 26.1825 17.3663 26.1613 18.0555C26.14 18.7339 26.1294 19.5308 26.1294 20.4461V33.9338Z" fill="white"/>
<path d="M33.266 26.781C33.2448 27.9871 33.2235 29.1555 33.2023 30.2862C33.1916 30.7707 33.181 31.2661 33.1704 31.7722C33.1704 32.2783 33.1651 32.7791 33.1544 33.2744C33.1544 33.759 33.1491 34.2275 33.1385 34.6797C33.1385 35.1213 33.1385 35.5143 33.1385 35.8589C33.1385 36.5804 33.1438 37.4527 33.1544 38.4757C33.1651 39.4987 33.1757 40.5486 33.1863 41.6255C33.2076 42.7023 33.2342 43.7361 33.266 44.7268C33.2979 45.7175 33.3351 46.5413 33.3776 47.1982C33.5264 47.2198 33.7231 47.2467 33.9675 47.279C34.2226 47.3005 34.4883 47.3221 34.7647 47.3436C35.041 47.3544 35.3121 47.3651 35.5778 47.3759C35.8435 47.3867 36.0667 47.3921 36.2474 47.3921C36.9914 47.3921 37.7513 47.3436 38.5272 47.2467C39.3137 47.139 40.0684 46.9452 40.7911 46.6652C41.5245 46.3852 42.21 46.0029 42.8478 45.5183C43.4961 45.023 44.0594 44.3876 44.5377 43.6123C45.0266 42.8369 45.4093 41.9055 45.6856 40.8178C45.9619 39.7194 46.1001 38.4272 46.1001 36.9411C46.1001 35.2935 45.9035 33.829 45.5102 32.5476C45.117 31.2553 44.5377 30.1677 43.7724 29.2847C43.0178 28.4017 42.0772 27.734 40.9505 27.2817C39.8345 26.8187 38.5485 26.5871 37.0924 26.5871C36.8054 26.5871 36.4812 26.5979 36.1198 26.6195C35.7585 26.6302 35.3971 26.6464 35.0357 26.6679C34.685 26.6787 34.3502 26.7002 34.0313 26.7325C33.7231 26.7541 33.468 26.7702 33.266 26.781ZM29.7745 25.3272C30.019 25.338 30.2475 25.3488 30.4601 25.3595C30.6408 25.3703 30.8268 25.3811 31.0181 25.3918C31.2094 25.3918 31.3635 25.3918 31.4804 25.3918C31.6824 25.3918 32.0172 25.3811 32.4848 25.3595C32.9631 25.338 33.5052 25.3165 34.111 25.2949C34.7169 25.2734 35.3439 25.2518 35.9923 25.2303C36.6513 25.2088 37.2677 25.198 37.8417 25.198C39.3828 25.198 40.8496 25.3918 42.2419 25.7795C43.6343 26.1672 44.8566 26.8025 45.9088 27.6855C46.961 28.5686 47.7954 29.7262 48.4118 31.1584C49.0283 32.5906 49.3365 34.3513 49.3365 36.4404C49.3365 37.9372 49.1718 39.2833 48.8423 40.4786C48.5234 41.6739 48.0717 42.7293 47.4872 43.6446C46.9026 44.5599 46.2011 45.346 45.3827 46.0029C44.5749 46.649 43.6768 47.1821 42.6883 47.602C41.7105 48.022 40.6636 48.3289 39.5476 48.5228C38.4316 48.7166 37.2784 48.8135 36.0879 48.8135C35.6628 48.8135 35.1473 48.7974 34.5415 48.7651C33.9463 48.7435 33.3458 48.7166 32.7399 48.6843C32.1341 48.652 31.5601 48.6197 31.0181 48.5874C30.4867 48.5658 30.0721 48.5551 29.7745 48.5551V48.4905C29.8383 48.2643 29.8968 47.9843 29.9499 47.6505C30.0137 47.3167 30.0668 46.9021 30.1093 46.4067C30.1519 45.9114 30.1837 45.3245 30.205 44.6461C30.2263 43.9569 30.2369 43.1546 30.2369 42.2393V31.7238C30.2369 30.8084 30.2263 30.0062 30.205 29.317C30.1837 28.617 30.1519 28.0194 30.1093 27.524C30.0668 27.0179 30.0137 26.5925 29.9499 26.2479C29.8968 25.9033 29.8383 25.618 29.7745 25.3918V25.3272Z" fill="white"/>
</svg>
