<svg width="77" height="33" viewBox="0 0 77 33" fill="none" xmlns="http://www.w3.org/2000/svg">
<path d="M12.8101 15.8701H11.5801C11.5377 15.8701 11.497 15.8869 11.467 15.917C11.4369 15.947 11.4201 15.9877 11.4201 16.0301V20.1001C11.4201 20.1224 11.4157 20.1445 11.4071 20.1651C11.3986 20.1858 11.3861 20.2045 11.3703 20.2203C11.3545 20.2361 11.3358 20.2486 11.3151 20.2571C11.2945 20.2657 11.2724 20.2701 11.2501 20.2701H8.76009C8.73776 20.2701 8.71566 20.2657 8.69503 20.2571C8.67441 20.2486 8.65567 20.2361 8.63988 20.2203C8.62409 20.2045 8.61157 20.1858 8.60303 20.1651C8.59448 20.1445 8.59009 20.1224 8.59009 20.1001V8.76009C8.59009 8.715 8.608 8.67176 8.63988 8.63988C8.67176 8.608 8.715 8.59009 8.76009 8.59009H12.8801C15.4401 8.59009 17.4501 9.52009 17.4501 12.1901C17.4501 14.8601 15.2601 15.8701 12.8101 15.8701ZM12.6401 10.8701H11.5801C11.5377 10.8701 11.497 10.8869 11.467 10.917C11.4369 10.947 11.4201 10.9877 11.4201 11.0301V13.4601C11.4201 13.5025 11.4369 13.5432 11.467 13.5732C11.497 13.6032 11.5377 13.6201 11.5801 13.6201H12.5801C13.6401 13.6201 14.5801 13.3101 14.5801 12.2001C14.5801 11.0901 13.6601 10.8701 12.6501 10.8701H12.6401Z" fill="black"/>
<path d="M28.3601 20.1701L27.5301 18.0801C27.518 18.0503 27.4973 18.0248 27.4705 18.007C27.4438 17.9891 27.4122 17.9798 27.3801 17.9801H23.0801C23.0479 17.9798 23.0164 17.9891 22.9897 18.007C22.9629 18.0248 22.9421 18.0503 22.9301 18.0801L22.1501 20.1701C22.138 20.1999 22.1173 20.2254 22.0905 20.2432C22.0638 20.2611 22.0322 20.2704 22.0001 20.2701H19.2801C19.2537 20.2704 19.2277 20.2641 19.2044 20.252C19.181 20.2398 19.1611 20.222 19.1462 20.2002C19.1314 20.1785 19.1221 20.1534 19.1193 20.1272C19.1165 20.101 19.1202 20.0745 19.1301 20.0501L23.9001 8.6901C23.9121 8.66028 23.9329 8.6348 23.9597 8.61696C23.9864 8.59912 24.0179 8.58976 24.0501 8.5901H26.5801C26.6122 8.58976 26.6438 8.59912 26.6705 8.61696C26.6973 8.6348 26.718 8.66028 26.7301 8.6901L31.4501 20.0601C31.46 20.0845 31.4637 20.111 31.4609 20.1372C31.458 20.1634 31.4488 20.1885 31.434 20.2102C31.4191 20.232 31.3991 20.2498 31.3758 20.262C31.3524 20.2741 31.3264 20.2804 31.3001 20.2801H28.5101C28.4767 20.2797 28.4444 20.2689 28.4175 20.2491C28.3906 20.2294 28.3705 20.2018 28.3601 20.1701ZM25.1101 12.1101L23.8601 15.5001C23.8522 15.524 23.8501 15.5494 23.8539 15.5742C23.8577 15.5991 23.8673 15.6227 23.8819 15.6431C23.8965 15.6636 23.9157 15.6803 23.938 15.6919C23.9603 15.7036 23.985 15.7098 24.0101 15.7101H26.4901C26.5152 15.7098 26.5399 15.7036 26.5622 15.6919C26.5845 15.6803 26.6037 15.6636 26.6183 15.6431C26.6329 15.6227 26.6425 15.5991 26.6463 15.5742C26.6501 15.5494 26.6479 15.524 26.6401 15.5001L25.4101 12.1101C25.3977 12.0798 25.3764 12.054 25.349 12.0363C25.3215 12.0185 25.2893 12.0095 25.2566 12.0106C25.2239 12.0117 25.1924 12.0228 25.1662 12.0424C25.14 12.0619 25.1204 12.0891 25.1101 12.1201V12.1101Z" fill="black"/>
<path d="M41.82 20.2001L39.45 16.3701C39.4356 16.3474 39.4156 16.3287 39.392 16.3157C39.3684 16.3028 39.3419 16.296 39.315 16.296C39.2881 16.296 39.2616 16.3028 39.238 16.3157C39.2144 16.3287 39.1945 16.3474 39.18 16.3701L36.9 20.2001C36.8859 20.2246 36.8654 20.245 36.8408 20.259C36.8162 20.2731 36.7883 20.2803 36.76 20.2801H33.76C33.7311 20.2797 33.7029 20.2715 33.6783 20.2563C33.6537 20.2411 33.6337 20.2196 33.6203 20.1939C33.607 20.1683 33.6009 20.1395 33.6026 20.1107C33.6043 20.0818 33.6138 20.054 33.63 20.0301L37.5 14.1901C37.5181 14.1636 37.5277 14.1322 37.5277 14.1001C37.5277 14.068 37.5181 14.0366 37.5 14.0101L34 8.84009C33.9838 8.81621 33.9743 8.78836 33.9726 8.75951C33.9709 8.73067 33.977 8.7019 33.9903 8.67626C34.0037 8.65062 34.0237 8.62908 34.0483 8.6139C34.0729 8.59873 34.1011 8.59051 34.13 8.59009H37.13C37.1583 8.58984 37.1862 8.59711 37.2108 8.61117C37.2354 8.62522 37.2559 8.64556 37.27 8.67009L39.27 11.9901C39.2845 12.0128 39.3044 12.0315 39.328 12.0445C39.3516 12.0574 39.3781 12.0642 39.405 12.0642C39.4319 12.0642 39.4584 12.0574 39.482 12.0445C39.5056 12.0315 39.5256 12.0128 39.54 11.9901L41.54 8.67009C41.5542 8.64556 41.5746 8.62522 41.5992 8.61117C41.6238 8.59711 41.6517 8.58984 41.68 8.59009H44.57C44.5989 8.59051 44.6272 8.59873 44.6517 8.6139C44.6763 8.62908 44.6964 8.65062 44.7097 8.67626C44.723 8.7019 44.7292 8.73067 44.7275 8.75951C44.7258 8.78836 44.7163 8.81621 44.7 8.84009L41.19 14.0001C41.172 14.0266 41.1623 14.058 41.1623 14.0901C41.1623 14.1222 41.172 14.1536 41.19 14.1801L45.19 20.0101C45.2063 20.034 45.2158 20.0618 45.2175 20.0907C45.2192 20.1195 45.213 20.1483 45.1997 20.1739C45.1864 20.1996 45.1663 20.2211 45.1417 20.2363C45.1172 20.2515 45.0889 20.2597 45.06 20.2601H42C41.9675 20.2706 41.9326 20.2704 41.9002 20.2597C41.8678 20.2489 41.8397 20.228 41.82 20.2001Z" fill="black"/>
<path d="M53.6101 20.5901C50.5401 20.5901 48.6101 18.6701 48.6101 15.8701V8.75006C48.6101 8.70763 48.627 8.66693 48.657 8.63693C48.687 8.60692 48.7277 8.59006 48.7701 8.59006H51.2501C51.2925 8.59006 51.3332 8.60692 51.3632 8.63693C51.3932 8.66693 51.4101 8.70763 51.4101 8.75006V15.6301C51.3898 15.9308 51.4315 16.2324 51.5326 16.5164C51.6337 16.8003 51.7921 17.0604 51.9979 17.2806C52.2037 17.5008 52.4526 17.6763 52.7291 17.7964C53.0055 17.9164 53.3037 17.9783 53.6051 17.9783C53.9065 17.9783 54.2047 17.9164 54.4812 17.7964C54.7576 17.6763 55.0065 17.5008 55.2123 17.2806C55.4181 17.0604 55.5765 16.8003 55.6776 16.5164C55.7787 16.2324 55.8204 15.9308 55.8001 15.6301V8.75006C55.7993 8.72522 55.8043 8.70053 55.8147 8.67796C55.8251 8.65539 55.8407 8.63555 55.8601 8.62002C55.8795 8.60449 55.9022 8.5937 55.9266 8.5885C55.9509 8.5833 55.976 8.58384 56.0001 8.59006H58.5001C58.5425 8.59006 58.5832 8.60692 58.6132 8.63693C58.6432 8.66693 58.6601 8.70763 58.6601 8.75006V15.8701C58.6401 18.6701 56.6601 20.5901 53.6101 20.5901Z" fill="black"/>
<path d="M74 20.2701C73.9549 20.2701 73.9117 20.2522 73.8798 20.2203C73.8479 20.1884 73.83 20.1452 73.83 20.1001L73.9 12.0001L70.9 20.1601C70.8877 20.1926 70.8658 20.2205 70.8372 20.2402C70.8086 20.2598 70.7747 20.2703 70.74 20.2701H69C68.9653 20.2703 68.9313 20.2598 68.9027 20.2402C68.8741 20.2205 68.8522 20.1926 68.84 20.1601L65.88 12.0001L65.94 20.1001C65.94 20.1224 65.9356 20.1445 65.927 20.1651C65.9185 20.1858 65.906 20.2045 65.8902 20.2203C65.8744 20.2361 65.8557 20.2486 65.835 20.2571C65.8144 20.2657 65.7923 20.2701 65.77 20.2701H63.4C63.3777 20.2701 63.3556 20.2657 63.3349 20.2571C63.3143 20.2486 63.2956 20.2361 63.2798 20.2203C63.264 20.2045 63.2515 20.1858 63.2429 20.1651C63.2344 20.1445 63.23 20.1224 63.23 20.1001V8.76009C63.23 8.715 63.2479 8.67176 63.2798 8.63988C63.3117 8.608 63.3549 8.59009 63.4 8.59009H67.12C67.1547 8.5899 67.1886 8.60034 67.2172 8.62C67.2458 8.63966 67.2677 8.66761 67.28 8.70009L69.9 16.0801H70L72.5 8.70009C72.5122 8.66761 72.5341 8.63966 72.5627 8.62C72.5913 8.60034 72.6253 8.5899 72.66 8.59009H76.45C76.4951 8.59009 76.5383 8.608 76.5702 8.63988C76.6021 8.67176 76.62 8.715 76.62 8.76009V20.1101C76.62 20.1552 76.6021 20.1984 76.5702 20.2303C76.5383 20.2622 76.4951 20.2801 76.45 20.2801L74 20.2701Z" fill="black"/>
<path d="M0 10H3.05C3.06309 8.16079 3.79952 6.40063 5.10008 5.10008C6.40063 3.79952 8.16079 3.06309 10 3.05V0C7.34784 0 4.8043 1.05357 2.92893 2.92893C1.05357 4.8043 0 7.34784 0 10H0Z" fill="#FF5252"/>
<g opacity="0.33">
<path opacity="0.33" d="M8.59009 26.6501H10.0501C11.0501 26.6501 11.7401 27.0101 11.7401 27.9501C11.7401 28.8901 11.0001 29.2701 10.0001 29.2701H9.39009V31.1201H8.59009V26.6501ZM9.94009 28.6501C10.4601 28.6501 10.9401 28.5201 10.9401 27.9901C10.9401 27.4601 10.4701 27.3601 9.94009 27.3601H9.39009V28.6001L9.94009 28.6501Z" fill="black"/>
<path opacity="0.33" d="M14.4201 30.7402C14.3152 30.8902 14.174 31.0112 14.0095 31.0916C13.8451 31.1721 13.6629 31.2095 13.4801 31.2002C13.3424 31.2198 13.2022 31.2105 13.0683 31.1729C12.9345 31.1353 12.8099 31.0702 12.7027 30.9817C12.5954 30.8933 12.5077 30.7834 12.4453 30.6592C12.3829 30.5349 12.347 30.399 12.3401 30.2602C12.3401 29.3502 13.4801 29.2602 14.4301 29.2602V29.1802C14.4301 28.8102 14.1101 28.6202 13.7301 28.6202C13.4189 28.6267 13.122 28.7519 12.9001 28.9702L12.5101 28.5102C12.8564 28.1899 13.3085 28.0084 13.7801 28.0002C13.9574 27.9735 14.1385 27.9876 14.3096 28.0414C14.4807 28.0953 14.6373 28.1874 14.7674 28.3108C14.8976 28.4342 14.9979 28.5856 15.0607 28.7536C15.1236 28.9216 15.1473 29.1017 15.1301 29.2802V31.1302H14.4201V30.7402ZM14.4201 29.7402H14.2501C13.7701 29.7402 13.0901 29.8002 13.0901 30.2502C13.0901 30.5402 13.3601 30.6302 13.6201 30.6302C13.7264 30.6425 13.8341 30.631 13.9354 30.5964C14.0367 30.5619 14.129 30.5052 14.2056 30.4305C14.2823 30.3558 14.3413 30.2649 14.3784 30.1645C14.4155 30.0642 14.4297 29.9568 14.4201 29.8502V29.7402Z" fill="black"/>
<path opacity="0.33" d="M16 28.0901H16.84L17.69 30.3001L18.44 28.0901H19.23L17.79 31.7801C17.7352 32.0393 17.5887 32.27 17.3774 32.4298C17.1662 32.5896 16.9043 32.6679 16.64 32.6501C16.5104 32.6651 16.3796 32.6651 16.25 32.6501L16.31 31.9901C16.4029 32.0032 16.4971 32.0032 16.59 31.9901C16.91 31.9901 17 31.8301 17.13 31.5101L17.28 31.1201L16 28.0901Z" fill="black"/>
<path opacity="0.33" d="M21.79 26.6501H22.66L23.53 29.9401L24.53 26.6501H25.35L26.35 29.9401L27.24 26.6501H28.09L26.78 31.1301H26L24.95 27.7701L23.9 31.1301H23.1L21.79 26.6501Z" fill="black"/>
<path opacity="0.33" d="M29.4302 26.6002C29.5202 26.6041 29.6071 26.6344 29.6801 26.6873C29.7531 26.7401 29.8089 26.8133 29.8407 26.8976C29.8724 26.9819 29.8787 27.0737 29.8588 27.1616C29.8388 27.2495 29.7935 27.3295 29.7285 27.3919C29.6634 27.4542 29.5815 27.4961 29.4928 27.5123C29.4042 27.5285 29.3127 27.5183 29.2298 27.4829C29.147 27.4476 29.0763 27.3887 29.0265 27.3136C28.9768 27.2384 28.9503 27.1503 28.9502 27.0602C28.9515 26.9985 28.9649 26.9376 28.9898 26.8811C29.0146 26.8246 29.0503 26.7735 29.0949 26.7308C29.1395 26.688 29.192 26.6545 29.2496 26.6321C29.3071 26.6097 29.3685 26.5989 29.4302 26.6002ZM29.0602 28.0902H29.8202V31.0902H29.0602V28.0902Z" fill="black"/>
<path opacity="0.33" d="M30.78 28.7002V28.0902H31.31V27.2102H32.06V28.0902H32.82V28.7002H32.06V30.1102C32.06 30.3802 32.12 30.5802 32.46 30.5802C32.5697 30.5826 32.6787 30.5622 32.78 30.5202V31.1202C32.6156 31.1748 32.4433 31.2019 32.27 31.2002C31.47 31.2002 31.27 30.7102 31.27 30.1202V28.7002H30.78Z" fill="black"/>
<path opacity="0.33" d="M36.6601 29.2301V31.1301H35.9001V29.4601C35.9001 29.1001 35.8201 28.6601 35.3401 28.6601C35.2375 28.6623 35.1365 28.6857 35.0434 28.7291C34.9504 28.7724 34.8674 28.8346 34.7997 28.9117C34.732 28.9888 34.681 29.0791 34.6501 29.177C34.6192 29.2749 34.609 29.3781 34.6201 29.4801V31.1401H33.8601V26.3401H34.6201V28.5101C34.7102 28.3496 34.8428 28.217 35.0033 28.127C35.1639 28.037 35.3462 27.9931 35.5301 28.0001C35.6882 27.9963 35.8453 28.0264 35.9909 28.0882C36.1364 28.1501 36.2671 28.2423 36.3741 28.3588C36.4811 28.4753 36.5619 28.6133 36.6113 28.7635C36.6606 28.9138 36.6772 29.0729 36.6601 29.2301Z" fill="black"/>
<path opacity="0.33" d="M40.1301 26.6501H43.1301V27.3501H40.9201V28.4901H43.0001V29.1601H40.9201V30.4301H43.2101V31.1401H40.1301V26.6501Z" fill="black"/>
<path opacity="0.33" d="M46.32 30.74C46.2151 30.89 46.0739 31.011 45.9094 31.0915C45.745 31.1719 45.5628 31.2093 45.38 31.2C45.2423 31.2196 45.1021 31.2103 44.9682 31.1727C44.8344 31.1351 44.7098 31.07 44.6026 30.9816C44.4953 30.8931 44.4076 30.7832 44.3452 30.659C44.2828 30.5348 44.2469 30.3989 44.24 30.26C44.24 29.35 45.38 29.26 46.33 29.26V29.18C46.33 28.81 46.01 28.62 45.63 28.62C45.3188 28.6265 45.0219 28.7517 44.8 28.97L44.41 28.51C44.7537 28.192 45.2018 28.0107 45.67 28C45.8458 27.9767 46.0247 27.9933 46.1932 28.0486C46.3617 28.1039 46.5156 28.1965 46.6434 28.3195C46.7712 28.4425 46.8696 28.5928 46.9314 28.759C46.9931 28.9253 47.0166 29.1034 47 29.28V31.13H46.29L46.32 30.74ZM46.32 29.74H46.15C45.67 29.74 44.99 29.8 44.99 30.25C44.99 30.54 45.26 30.63 45.52 30.63C45.6263 30.6423 45.734 30.6308 45.8353 30.5962C45.9366 30.5617 46.0289 30.505 46.1055 30.4303C46.1822 30.3556 46.2412 30.2647 46.2783 30.1644C46.3154 30.064 46.3296 29.9566 46.32 29.85V29.74Z" fill="black"/>
<path opacity="0.33" d="M50.0601 28.9002C49.9814 28.7996 49.8814 28.7179 49.7672 28.6608C49.6531 28.6037 49.5277 28.5728 49.4001 28.5702C49.1601 28.5702 48.91 28.6602 48.91 28.9002C48.91 29.1402 49.14 29.2002 49.57 29.3002C50 29.4002 50.57 29.6102 50.57 30.2102C50.57 30.8102 49.97 31.2102 49.3 31.2102C49.0687 31.2158 48.8386 31.1743 48.6238 31.0884C48.4089 31.0024 48.2137 30.8738 48.05 30.7102L48.55 30.2402C48.6432 30.358 48.7617 30.4534 48.8967 30.5192C49.0317 30.585 49.1798 30.6195 49.3301 30.6202C49.5501 30.6202 49.82 30.5302 49.82 30.2602C49.82 29.9902 49.59 29.9302 49.12 29.8202C48.65 29.7102 48.2201 29.5302 48.2201 28.9602C48.2201 28.3902 48.83 27.9602 49.43 27.9602C49.642 27.95 49.8537 27.9859 50.0504 28.0653C50.2472 28.1447 50.4245 28.2658 50.57 28.4202L50.0601 28.9002Z" fill="black"/>
<path opacity="0.33" d="M54.5702 29.85H52.2602C52.2851 30.0612 52.3883 30.2554 52.5493 30.3942C52.7104 30.533 52.9176 30.6065 53.1302 30.6C53.2856 30.608 53.4406 30.5764 53.5805 30.5082C53.7204 30.44 53.8407 30.3374 53.9302 30.21L54.4402 30.62C54.2257 30.8802 53.9372 31.0689 53.6129 31.161C53.2885 31.2531 52.9439 31.2443 52.6247 31.1357C52.3055 31.0272 52.0269 30.824 51.8261 30.5532C51.6252 30.2825 51.5115 29.957 51.5002 29.62C51.4903 29.4055 51.5251 29.1913 51.6024 28.9909C51.6797 28.7906 51.7978 28.6085 51.9491 28.4562C52.1005 28.3039 52.2819 28.1847 52.4817 28.1061C52.6816 28.0276 52.8956 27.9915 53.1102 28C53.3208 27.9933 53.5304 28.033 53.724 28.1162C53.9176 28.1994 54.0907 28.324 54.2309 28.4814C54.3711 28.6387 54.475 28.825 54.5354 29.0269C54.5957 29.2288 54.611 29.4415 54.5802 29.65C54.5802 29.72 54.5802 29.78 54.5702 29.85ZM53.8202 29.31C53.8275 29.2131 53.814 29.1158 53.7805 29.0246C53.7471 28.9334 53.6945 28.8504 53.6262 28.7812C53.558 28.712 53.4758 28.6583 53.385 28.6236C53.2943 28.5889 53.1971 28.574 53.1002 28.58C52.8934 28.5713 52.6912 28.6422 52.535 28.7779C52.3788 28.9137 52.2804 29.104 52.2602 29.31H53.8202Z" fill="black"/>
</g>
</svg>
