<svg width="9" height="10" viewBox="0 0 9 10" fill="none" xmlns="http://www.w3.org/2000/svg">
<path d="M1.26 10V8.502H0.14V7.144H1.26V6.052H0.14V4.316H1.26V0.00399935H4.452C5.74 0.00399935 6.678 0.265333 7.266 0.787999C7.86333 1.31067 8.162 2.02933 8.162 2.944C8.162 3.48533 8.04067 3.994 7.798 4.47C7.55533 4.946 7.14933 5.32867 6.58 5.618C6.02 5.90733 5.25467 6.052 4.284 6.052H3.374V7.144H5.53V8.502H3.374V10H1.26ZM3.374 4.316H4.074C4.67133 4.316 5.14267 4.21333 5.488 4.008C5.84267 3.80267 6.02 3.47133 6.02 3.014C6.02 2.16467 5.46 1.74 4.34 1.74H3.374V4.316Z" fill="#88909E"/>
</svg>
