<svg width="150" height="46" viewBox="0 0 150 46" fill="none" xmlns="http://www.w3.org/2000/svg">
<path d="M124.855 8.18774C127.219 8.18774 129.467 8.72929 131.486 9.69802C131.802 9.8408 132.121 10.0117 132.436 10.1827L131.052 11.4085L128.978 9.27099L125.403 12.4056L123.298 10.1539L116.725 15.9964L120.934 20.5848L119.291 22.0093L123.443 26.5977L121.8 28.0217L127.739 34.5481L131.254 31.3561L134.311 34.7768C133.705 35.2329 133.042 35.6898 132.322 36.0881C130.131 37.3134 127.593 38.0245 124.884 38.0245C116.552 38.0245 109.778 31.3287 109.778 23.0933C109.749 14.9136 116.524 8.18774 124.855 8.18774ZM122.087 22.1807L125.691 18.9887L128.92 22.5509L125.316 25.7426L122.087 22.1807ZM124.653 28.3366L128.228 25.1163L131.486 28.6782L127.882 31.8704L124.653 28.3366ZM119.523 16.1108L123.125 12.9187L126.354 16.481L122.75 19.6728L119.523 16.1108ZM126.123 14.4003L128.804 12.0065L131.226 14.657L128.545 17.0791L126.123 14.4003ZM130.909 25.3723L133.589 22.9784L136.011 25.6565L133.33 28.0519L130.909 25.3723ZM133.273 30.7591L135.954 28.3647L138.374 31.015L135.694 33.4368L133.273 30.7591ZM134.368 18.4471L136.155 16.851L137.769 18.6186L135.982 20.2141L134.368 18.4471ZM132.062 13.1749L133.849 11.5508L135.464 13.3459L133.676 14.9419L132.062 13.1749ZM136.646 23.7198L138.433 22.1239L140.076 23.8909L138.26 25.4864L136.646 23.7198ZM128.603 19.7584L131.284 17.3645L133.705 20.0144L131.025 22.4087L128.603 19.7584Z" fill="#036CB5"/>
<mask id="mask0" mask-type="alpha" maskUnits="userSpaceOnUse" x="9" y="14" width="17" height="15">
<path d="M9.92432 14.387V28.162H25.6811V14.387H9.92432Z" fill="white"/>
</mask>
<g mask="url(#mask0)">
<path d="M17.8319 18.4659H17.6959L15.1431 28.162H13.0565L9.92432 14.387H12.0893L14.2547 24.6654H14.3899L16.9028 14.387H18.624L21.3114 24.6654H21.4467L23.419 14.387H25.6811L22.5482 28.162H20.46L17.8319 18.4659Z" fill="#036CB5"/>
</g>
<path d="M28.4278 22.2978H32.8542C32.7582 20.2584 31.7716 19.4432 30.728 19.4432C29.5488 19.4432 28.6395 20.3561 28.4278 22.2978ZM34.4006 25.9515V27.4283C33.5308 27.9333 32.3715 28.3222 30.9787 28.3222C27.7316 28.3222 26.3977 26.3016 26.3977 23.2322C26.3977 20.2778 27.886 18.1406 30.786 18.1406C33.202 18.1406 34.6915 19.7154 34.6915 22.8815V23.6005H28.389C28.389 25.9312 29.3357 26.9612 31.3278 26.9612C32.3715 26.9612 33.3381 26.5914 34.4006 25.9515Z" fill="#036CB5"/>
<path d="M39.1885 26.7641C39.8073 27.0361 40.4844 27.0763 40.9686 27.0763C42.3988 27.0763 43.4803 26.1813 43.4803 23.0347C43.4803 20.5672 42.5911 19.7706 41.2964 19.7706C40.5224 19.7706 39.962 19.985 39.1885 20.4116V26.7641H39.1885ZM39.2088 18.9743C39.7874 18.6644 40.7732 18.255 41.8176 18.255C44.2151 18.255 45.5106 19.9258 45.5106 23.0347C45.5106 26.6681 43.7703 28.4361 40.9686 28.4361C39.9431 28.4361 38.3579 28.1057 37.1973 27.4826V13.9228L39.2088 13.4377V18.9743H39.2088Z" fill="#036CB5"/>
<path d="M54.2119 25.2391H54.3088L58.4452 14.3784H60.8437V28.1544H58.7558V18.1673H58.5815L54.637 28.1544H53.4008L49.4555 18.4008H49.2821V28.1544H47.542V14.3784H49.882L54.2119 25.2391Z" fill="#036CB5"/>
<path d="M69.3741 23.2316C69.3741 20.609 68.3116 19.5021 66.997 19.5021C65.7214 19.5021 64.6185 20.609 64.6185 23.2316C64.6185 25.8936 65.6251 26.9612 66.997 26.9612C68.3689 26.9612 69.3741 25.8937 69.3741 23.2316ZM62.5894 23.2316C62.5894 19.8304 64.4458 18.1406 66.997 18.1406C69.5497 18.1406 71.4051 19.8304 71.4051 23.2316C71.4051 26.5533 69.646 28.3222 66.997 28.3222C64.3485 28.3222 62.5894 26.5533 62.5894 23.2316Z" fill="#036CB5"/>
<path d="M72.9343 19.5794C73.8042 19.054 75.6416 18.1406 77.8643 18.1406C80.1841 18.1406 81.0525 19.054 81.0525 21.0546V28.0888H79.0433V21.5021C79.0433 19.9675 78.2906 19.6956 77.3034 19.6956C76.531 19.6956 75.5438 20.0458 74.945 20.3954V28.0888H72.9343V19.5794H72.9343Z" fill="#036CB5"/>
<path d="M85.3083 22.2978H89.735C89.6399 20.2584 88.6528 19.4432 87.6088 19.4432C86.4292 19.4432 85.5218 20.3561 85.3083 22.2978ZM91.2813 25.9515V27.4283C90.4118 27.9333 89.2518 28.3222 87.8596 28.3222C84.6136 28.3222 83.2788 26.3016 83.2788 23.2322C83.2788 20.2778 84.7666 18.1406 87.6668 18.1406C90.0842 18.1406 91.5735 19.7154 91.5735 22.8815V23.6005H85.2702C85.2702 25.9312 86.2177 26.9612 88.209 26.9612C89.2518 26.9612 90.2199 26.5914 91.2813 25.9515Z" fill="#036CB5"/>
<path d="M99.6035 18.1406H101.673L98.1731 27.8537C97.2051 30.5351 96.0272 31.9341 93.8043 31.9341V30.342C95.1197 30.342 95.9304 29.2924 96.3955 27.8537L92.6833 18.1406H94.8103L97.2847 25.2902H97.4007L99.6035 18.1406Z" fill="#036CB5"/>
<path d="M30.8063 37.1161V36.2771C31.5232 36.6411 32.2054 36.8238 32.8518 36.8238C33.3902 36.8238 33.8026 36.7251 34.0908 36.5258C34.379 36.3279 34.5233 36.0602 34.5233 35.7218C34.5233 35.3835 34.4048 35.1298 34.1677 34.961C33.9312 34.7924 33.4891 34.5837 32.8424 34.3364C32.6179 34.2521 32.4745 34.1972 32.4098 34.171C32.3461 34.1455 32.2212 34.0929 32.0352 34.0152C31.8498 33.9376 31.7281 33.8786 31.6707 33.8398C31.6129 33.7997 31.5156 33.741 31.3776 33.664C31.2401 33.5852 31.1473 33.5158 31.099 33.4551C31.0515 33.3927 30.9854 33.3138 30.9021 33.2197C30.819 33.1259 30.7628 33.0327 30.7339 32.9377C30.7053 32.8436 30.6777 32.7347 30.6524 32.6109C30.627 32.4869 30.614 32.354 30.614 32.2109C30.614 31.6581 30.8175 31.2139 31.2238 30.8754C31.6308 30.538 32.1923 30.3689 32.9097 30.3689C33.5433 30.3689 34.1745 30.4856 34.8015 30.7199V31.6066C34.1933 31.3071 33.5851 31.1589 32.9767 31.1589C32.5477 31.1589 32.2276 31.2484 32.0163 31.4302C31.805 31.6121 31.6992 31.8527 31.6992 32.1521C31.6992 32.4709 31.805 32.7125 32.0163 32.8786C32.2275 33.0454 32.6056 33.229 33.15 33.43C34.0844 33.7746 34.7281 34.0865 35.08 34.3664C35.4325 34.645 35.6085 35.0623 35.6085 35.6141C35.6085 36.1932 35.3668 36.6665 34.8833 37.0338C34.3998 37.401 33.7358 37.5848 32.8903 37.5848C32.1159 37.5848 31.421 37.428 30.8063 37.1161ZM40.5788 37.4371H39.6666L39.5992 36.8716C39.0481 37.3272 38.4977 37.5551 37.9471 37.5551C37.4862 37.5551 37.1292 37.4302 36.8765 37.1792C36.6231 36.929 36.4968 36.613 36.4968 36.2284C36.4968 36.0266 36.5335 35.8338 36.6073 35.6484C36.681 35.4629 36.8027 35.2831 36.9722 35.1076C37.1418 34.9318 37.3979 34.7908 37.7404 34.6831C38.0828 34.5752 38.4945 34.5219 38.9749 34.5219H39.5705V34.2587C39.5705 33.8233 39.4905 33.5267 39.3303 33.3666C39.1698 33.2073 38.9011 33.1277 38.5235 33.1277C38.0625 33.1277 37.4956 33.3186 36.8236 33.7031V32.9232C37.5152 32.6048 38.1936 32.4442 38.8594 32.4442C39.5059 32.4442 39.9546 32.5783 40.2039 32.8454C40.454 33.1113 40.5788 33.5149 40.5788 34.0532V37.4371ZM39.5801 35.2042H39.0707C38.0205 35.2042 37.4956 35.5198 37.4956 36.1506C37.4956 36.3724 37.5658 36.5316 37.7068 36.633C37.848 36.734 38.0241 36.7839 38.2356 36.7839C38.5039 36.7839 38.7635 36.7188 39.0132 36.5884C39.2629 36.4593 39.4521 36.3098 39.5801 36.1407V35.2042H39.5801ZM42.1395 39.388V33.1576C42.4214 32.9424 42.7538 32.7695 43.1384 32.6397C43.5228 32.5107 43.9 32.4442 44.2719 32.4442C45.6032 32.4442 46.2695 33.2605 46.2695 34.8929C46.2695 35.7379 46.0966 36.3848 45.7506 36.8325C45.405 37.2816 44.9092 37.5049 44.262 37.5049C43.8136 37.5049 43.4391 37.3911 43.1384 37.165V39.388H42.1395ZM43.1288 33.488V36.4437C43.2568 36.5667 43.4183 36.6582 43.6137 36.7204C43.8091 36.7821 43.9805 36.8129 44.1276 36.8129C44.4795 36.8129 44.7568 36.6756 44.9586 36.3993C45.1603 36.1225 45.2606 35.6204 45.2606 34.8929C45.2606 34.3013 45.1572 33.8678 44.949 33.5963C44.7409 33.3223 44.4701 33.1864 44.1371 33.1864C43.7598 33.1864 43.4237 33.2866 43.1288 33.488ZM48.5602 32.4944V37.4371H47.5614V32.7377L48.5602 32.4944ZM47.4076 31.0602C47.4076 30.8847 47.4731 30.7308 47.6042 30.5968C47.7359 30.4636 47.888 30.3967 48.0603 30.3967C48.2336 30.3967 48.3856 30.4636 48.5172 30.5968C48.6484 30.7308 48.714 30.8847 48.714 31.0602C48.714 31.2357 48.6484 31.3906 48.5172 31.5244C48.3856 31.6563 48.2336 31.7232 48.0603 31.7232C47.888 31.7232 47.7359 31.6563 47.6042 31.5244C47.4731 31.3906 47.4076 31.2357 47.4076 31.0602ZM52.3011 36.8716C52.7625 36.8716 53.271 36.7025 53.8282 36.3651V37.1061C53.3162 37.4056 52.7494 37.5551 52.1283 37.5551C51.3471 37.5551 50.7727 37.3306 50.4045 36.8818C50.0362 36.4329 49.8521 35.806 49.8521 34.9999C49.8521 34.2324 50.0411 33.6142 50.4184 33.1476C50.7966 32.6796 51.3341 32.4442 52.0319 32.4442C52.6471 32.4442 53.1235 32.6463 53.4637 33.0498C53.8029 33.4535 53.9721 34.0442 53.9721 34.8241V35.1854H50.8414C50.8414 35.7642 50.9599 36.1905 51.1965 36.4619C51.4335 36.7361 51.8018 36.8716 52.3011 36.8716ZM52.0031 33.0987C51.7026 33.0987 51.4494 33.2191 51.2444 33.4587C51.0399 33.6996 50.9115 34.0578 50.8604 34.531H53.0597C53.0339 34.0505 52.9222 33.6923 52.7236 33.4551C52.5255 33.2172 52.2852 33.0987 52.0031 33.0987ZM55.2446 37.4371V33.1667C56.0321 32.6853 56.8486 32.4442 57.6941 32.4442C58.264 32.4442 58.6703 32.5622 58.9136 32.7964C59.157 33.0306 59.2786 33.4008 59.2786 33.9074V37.4371H58.2799V34.1319C58.2799 33.7746 58.2062 33.5337 58.059 33.4109C57.9116 33.2866 57.6973 33.2253 57.4154 33.2253C57.0314 33.2253 56.6406 33.3428 56.2439 33.5766V37.4371H55.2446V37.4371ZM61.7901 32.6796H63.3077L63.0675 33.3428H61.7901V35.9164C61.7901 36.5667 62.0656 36.8916 62.6161 36.8916C62.8274 36.8916 63.0418 36.8465 63.2603 36.7552V37.3787C62.9591 37.496 62.6003 37.5551 62.1841 37.5551C61.7038 37.5551 61.3517 37.4166 61.1274 37.1394C60.9035 36.8644 60.7913 36.5015 60.7913 36.0519V32.0354L61.7902 31.3033V32.6796H61.7901ZM65.2629 32.4944V37.4371H64.2637V32.7377L65.2629 32.4944ZM64.1102 31.0602C64.1102 30.8847 64.1759 30.7308 64.3064 30.5968C64.4377 30.4636 64.5897 30.3967 64.763 30.3967C64.9357 30.3967 65.0882 30.4636 65.219 30.5968C65.3505 30.7308 65.4162 30.8847 65.4162 31.0602C65.4162 31.2357 65.3505 31.3906 65.219 31.5244C65.0882 31.6563 64.9357 31.7232 64.763 31.7232C64.5897 31.7232 64.4377 31.6563 64.3064 31.5244C64.1759 31.3906 64.1102 31.2357 64.1102 31.0602ZM72.0625 32.8352V33.6142C71.5822 33.2895 71.0954 33.1277 70.6029 33.1277C70.3531 33.1277 70.1483 33.1764 69.9877 33.2742C69.8279 33.3709 69.7478 33.5276 69.7478 33.741C69.7478 33.9437 69.8356 34.1041 70.0117 34.2243C70.1879 34.3449 70.4649 34.4668 70.843 34.5894C71.0543 34.6611 71.2125 34.7167 71.3179 34.7555C71.4239 34.7954 71.5628 34.8605 71.736 34.9509C71.9087 35.0424 72.0386 35.1325 72.1249 35.2242C72.2114 35.3155 72.2897 35.4351 72.3604 35.5851C72.4308 35.7345 72.4656 35.8998 72.4656 36.0819C72.4656 36.5309 72.288 36.8882 71.9331 37.1548C71.5776 37.4213 71.1019 37.5551 70.5068 37.5551C69.8406 37.5551 69.2864 37.412 68.8449 37.1251V36.3652C69.4082 36.7025 69.9238 36.8716 70.3916 36.8716C71.0954 36.8716 71.4478 36.6383 71.4478 36.1697C71.4478 36.0791 71.4269 35.9939 71.3854 35.9164C71.3437 35.8384 71.2958 35.7751 71.2415 35.7261C71.1868 35.6774 71.0986 35.6224 70.9769 35.5596C70.8551 35.4991 70.753 35.4539 70.6697 35.4241C70.5866 35.3951 70.4553 35.3479 70.2762 35.2831C70.0134 35.1854 69.8054 35.1012 69.6515 35.0293C69.4976 34.9573 69.3445 34.8649 69.1907 34.7516C69.0367 34.6378 68.9245 34.502 68.8546 34.3465C68.7843 34.191 68.749 34.0051 68.749 33.7909C68.749 33.5177 68.8129 33.2844 68.9409 33.0898C69.0689 32.8935 69.2357 32.7538 69.4402 32.6696C69.6451 32.5848 69.8325 32.5259 70.0021 32.4944C70.1721 32.4608 70.34 32.4442 70.5068 32.4442C71.0512 32.4442 71.5696 32.5746 72.0625 32.8352ZM77.3688 37.4371H76.4566L76.389 36.8716C75.838 37.3272 75.2879 37.5551 74.7374 37.5551C74.2765 37.5551 73.9194 37.4302 73.6665 37.1792C73.4132 36.929 73.2871 36.613 73.2871 36.2284C73.2871 36.0266 73.3238 35.8338 73.3976 35.6484C73.4712 35.4629 73.5929 35.2831 73.7626 35.1076C73.9327 34.9318 74.1881 34.7908 74.5306 34.6831C74.8734 34.5752 75.285 34.5219 75.7646 34.5219H76.3607V34.2587C76.3607 33.8233 76.2802 33.5267 76.121 33.3666C75.9599 33.2073 75.6912 33.1277 75.314 33.1277C74.8527 33.1277 74.2858 33.3186 73.6137 33.7031V32.9232C74.3054 32.6048 74.9838 32.4442 75.6496 32.4442C76.2967 32.4442 76.7443 32.5783 76.9942 32.8454C77.2438 33.1113 77.3688 33.5149 77.3688 34.0532V37.4371H77.3688ZM76.3708 35.2042H75.8612C74.811 35.2042 74.2858 35.5198 74.2858 36.1506C74.2858 36.3724 74.3563 36.5316 74.4971 36.633C74.6382 36.734 74.8138 36.7839 75.0255 36.7839C75.2942 36.7839 75.5529 36.7188 75.8035 36.5884C76.0531 36.4593 76.2424 36.3098 76.3708 36.1407V35.2042H76.3708ZM79.881 32.6796H81.3983L81.1576 33.3428H79.881V35.9164C79.881 36.5667 80.156 36.8916 80.706 36.8916C80.9176 36.8916 81.1314 36.8465 81.3501 36.7552V37.3787C81.049 37.496 80.6909 37.5551 80.2735 37.5551C79.7941 37.5551 79.4421 37.4166 79.2179 37.1394C78.9936 36.8644 78.8811 36.5015 78.8811 36.0519V32.0354L79.8809 31.3033V32.6796H79.881Z" fill="#B6B6B6"/>
</svg>
